# xmcd
# Copyright (C) 1995-1998 Ti Kan
#
# Track frame offsets:
#       150
#       12042
#       33657
#       51145
#       64650
#       77517
#       90762
#       109947
#       120972
#       142382
#       157600
#       173205
#       184610
#       199962
#       212465
#       232347
#       252147
#       265322
#       279097
#
# Disc length: 4009 seconds
#
# Revision: 18
# Processed by: cddbd v1.5PL3 Copyright (c) Steve Scherf et al.
# Submitted via: CD-Transfer v1.0
#
DISCID=f80fa713
DTITLE=Isaak Chris - Levi's Vol - 3
DYEAR=1900
DGENRE=
TTITLE0=Ring Of Fire
TTITLE1=Ramblin' Man
TTITLE2=La Grange
TTITLE3=One Burbon, One Scotch, One Bear
TTITLE4=Cocaine
TTITLE5=Willin'
TTITLE6=Walking In Memphis
TTITLE7=How Can You Keep On Moving
TTITLE8=They All Went To Mexico
TTITLE9=Dust In The Wind
TTITLE10=Long Train Runnin'
TTITLE11=I Hear You Knocking
TTITLE12=On The Road Again
TTITLE13=Bo Diddley
TTITLE14=Heart Atack And Vine
TTITLE15=500 Miles
TTITLE16=Catton Field
TTITLE17=Highwayman 
TTITLE18=Wicked Game
EXTD=
EXTT0=
EXTT1=
EXTT2=
EXTT3=
EXTT4=
EXTT5=
EXTT6=
EXTT7=
EXTT8=
EXTT9=
EXTT10=
EXTT11=
EXTT12=
EXTT13=
EXTT14=
EXTT15=
EXTT16=
EXTT17=
EXTT18=
PLAYORDER=
